<?xml version="1.0" standalone="no"?>
<!DOCTYPE svg PUBLIC "-//W3C//DTD SVG 20010904//EN"
 "http://www.w3.org/TR/2001/REC-SVG-20010904/DTD/svg10.dtd">
<svg version="1.0" xmlns="http://www.w3.org/2000/svg"
 width="512.000000pt" height="512.000000pt" viewBox="0 0 512.000000 512.000000"
 preserveAspectRatio="xMidYMid meet">
<g transform="translate(0.000000,512.000000) scale(0.100000,-0.100000)"
fill="rgb(255, 242, 81)" stroke="none">
<path d="M684 4781 c-50 -23 -107 -88 -122 -140 -16 -50 -17 -4107 -2 -4162
13 -48 75 -118 124 -140 89 -40 46 -60 961 447 462 257 845 467 850 466 6 0
417 -210 915 -467 902 -465 905 -466 958 -462 87 6 168 77 192 167 7 25 9 736
8 2092 l-3 2055 -30 48 c-17 27 -50 63 -74 80 l-43 30 -1846 2 c-1777 3 -1849
2 -1888 -16z m2043 -941 l158 -335 361 -55 361 -55 -258 -265 c-164 -168 -259
-272 -259 -285 0 -11 27 -182 59 -380 32 -198 58 -361 57 -361 0 -1 -146 79
-324 177 l-322 178 -323 -178 c-177 -98 -323 -178 -324 -177 0 0 25 163 58
361 32 198 59 369 59 380 0 13 -95 117 -259 285 l-258 265 361 55 361 55 160
342 c88 187 163 338 167 334 4 -3 78 -157 165 -341z"/>
</g>
</svg>
